<svg xmlns="http://www.w3.org/2000/svg" xmlns:xlink="http://www.w3.org/1999/xlink" version="1.1" x="0px" y="0px" viewBox="0 0 90 90" enable-background="new 0 0 90 90" xml:space="preserve">
    <path d="M46.3,78.5c-14.8,0-27.8-10-31.6-24.3c-0.1-0.5,0.2-1.1,0.7-1.2c0.5-0.1,1.1,0.2,1.2,0.7c3.6,13.4,15.8,22.8,29.7,22.8  c17,0,30.8-13.8,30.8-30.8c0-0.6,0.4-1,1-1s1,0.4,1,1C79,63.8,64.3,78.5,46.3,78.5z"/>
    <path d="M14.5,46.8c-0.6,0-1-0.4-1-1C13.5,27.7,28.2,13,46.3,13c13.6,0,26,8.6,30.7,21.4c0.2,0.5-0.1,1.1-0.6,1.3  c-0.5,0.2-1.1-0.1-1.3-0.6C70.6,23.1,59,15,46.3,15c-17,0-30.8,13.8-30.8,30.8C15.5,46.3,15.1,46.8,14.5,46.8z"/>
    <path d="M13.5,60.8c-0.1,0-0.2,0-0.3,0c-0.5-0.2-0.8-0.7-0.7-1.2l1.5-5.2c0.2-0.7,0.7-1.2,1.4-1.4c0.7-0.2,1.4,0,1.9,0.6l3.7,3.9  c0.4,0.4,0.4,1,0,1.4c-0.4,0.4-1,0.4-1.4,0L16,54.9l-1.5,5.2C14.4,60.5,14,60.8,13.5,60.8z"/>
    <path d="M76.3,36.6c-0.4,0-0.8-0.1-1.1-0.4l-4.4-3c-0.5-0.3-0.6-0.9-0.3-1.4c0.3-0.5,0.9-0.6,1.4-0.3l4.4,3l0.4-5.4  c0-0.6,0.5-1,1.1-0.9c0.6,0,1,0.5,0.9,1.1l-0.4,5.4c-0.1,0.7-0.5,1.3-1.1,1.6C76.9,36.5,76.6,36.6,76.3,36.6z"/>
    <path d="M63.4,47.1v-4.2l-5.8-0.9c-0.3-1.4-0.8-2.7-1.5-3.9l3.5-4.6l-3-3L52,33.9c-1.2-0.8-2.6-1.4-4.1-1.7l-0.8-5.5h-4.2l-0.8,5.5  c-1.5,0.3-2.9,0.9-4.1,1.7l-4.5-3.4l-3,3l3.5,4.6c-0.7,1.2-1.3,2.5-1.5,3.9l-5.8,0.9v4.2l6,0.9c0.3,1.3,0.9,2.5,1.6,3.6l-3.7,5l3,3  l5.1-3.8c1.1,0.6,2.2,1.1,3.5,1.4l0.9,6.3h4.2l0.9-6.3c1.2-0.3,2.4-0.8,3.5-1.4l5.1,3.8l3-3l-3.7-5c0.7-1.1,1.2-2.3,1.6-3.6  L63.4,47.1z M45,51.5c-3.8,0-6.8-3.1-6.8-6.8s3.1-6.8,6.8-6.8s6.8,3.1,6.8,6.8S48.8,51.5,45,51.5z"/>
</svg>